<?xml version="1.0" encoding="UTF-8" standalone="no"?>
<svg width="32px" height="32px" viewBox="0 0 32 32" version="1.1" xmlns="http://www.w3.org/2000/svg">
  <path
     d="m 30,3 1,1 0.5,2 -0.5,2 -1,1 -2,1 H 4 L 2,9 1,8 0.5,6 1,4 2,3 4,2 h 24 z"
     style="fill:#000000;fill-opacity:1;fill-rule:nonzero;stroke:#000000;stroke-width:0.8;stroke-opacity:0" />
  <path
     d=" M 30 13 L 31 14 L 31.50 16 L 31 18 L 30 19 L 28 20 L 4 20 L 2 19 L 1 18 L 0.50 16 L 1 14 L 2 13 L 4 12 L 28 12 z"
     style="fill:#000000; fill-opacity:1; fill-rule:nonzero; stroke:#000000; stroke-opacity:0; stroke-width:0.80;" />
  <path
     d="m 30,23 1,1 0.5,2 -0.5,2 -1,1 -2,1 H 4 L 2,29 1,28 0.5,26 1,24 2,23 4,22 h 24 z"
     style="fill:#000000;fill-opacity:1;fill-rule:nonzero;stroke:#000000;stroke-width:0.8;stroke-opacity:0" />
</svg>
