<svg xmlns="http://www.w3.org/2000/svg" viewBox="0 0 600 360" width="100%" height="100%">
  <rect width="600" height="360" fill="#1B1B1F" fill-opacity="0.25" rx="6" />
  <line x1="85.7" y1="40" x2="85.7" y2="320" stroke="#5F9F5F" stroke-opacity="0.3" stroke-width="1" />
  <text x="85.7" y="338" fill="#BFFFBF" fill-opacity="0.8" font-size="12" font-family="sans-serif" text-anchor="middle">-3</text>
  <line x1="157.1" y1="40" x2="157.1" y2="320" stroke="#5F9F5F" stroke-opacity="0.3" stroke-width="1" />
  <text x="157.1" y="338" fill="#BFFFBF" fill-opacity="0.8" font-size="12" font-family="sans-serif" text-anchor="middle">-2</text>
  <line x1="228.6" y1="40" x2="228.6" y2="320" stroke="#5F9F5F" stroke-opacity="0.3" stroke-width="1" />
  <text x="228.6" y="338" fill="#BFFFBF" fill-opacity="0.8" font-size="12" font-family="sans-serif" text-anchor="middle">-1</text>
  <line x1="300.0" y1="40" x2="300.0" y2="320" stroke="#BFFFBF" stroke-opacity="0.6" stroke-width="2" />
  <text x="300.0" y="338" fill="#BFFFBF" fill-opacity="0.8" font-size="12" font-family="sans-serif" text-anchor="middle">0</text>
  <line x1="371.4" y1="40" x2="371.4" y2="320" stroke="#5F9F5F" stroke-opacity="0.3" stroke-width="1" />
  <text x="371.4" y="338" fill="#BFFFBF" fill-opacity="0.8" font-size="12" font-family="sans-serif" text-anchor="middle">1</text>
  <line x1="442.9" y1="40" x2="442.9" y2="320" stroke="#5F9F5F" stroke-opacity="0.3" stroke-width="1" />
  <text x="442.9" y="338" fill="#BFFFBF" fill-opacity="0.8" font-size="12" font-family="sans-serif" text-anchor="middle">2</text>
  <line x1="514.3" y1="40" x2="514.3" y2="320" stroke="#5F9F5F" stroke-opacity="0.3" stroke-width="1" />
  <text x="514.3" y="338" fill="#BFFFBF" fill-opacity="0.8" font-size="12" font-family="sans-serif" text-anchor="middle">3</text>
  <line x1="50" y1="264.0" x2="550" y2="264.0" stroke="#BFFFBF" stroke-opacity="0.6" stroke-width="2" />
  <line x1="50" y1="77.3" x2="550" y2="77.3" stroke="#5F9F5F" stroke-opacity="0.3" stroke-width="1" stroke-dasharray="4,4" />
  <text x="42" y="81.3" fill="#BFFFBF" fill-opacity="0.8" font-size="12" font-family="sans-serif" text-anchor="end">1</text>
  <line x1="50" y1="301.3" x2="550" y2="301.3" stroke="#5F9F5F" stroke-opacity="0.3" stroke-width="1" stroke-dasharray="4,4" />
  <text x="42" y="305.3" fill="#BFFFBF" fill-opacity="0.8" font-size="12" font-family="sans-serif" text-anchor="end">-0.2</text>
  <path d="M 50.00,264.00 L 50.83,264.00 L 51.67,264.00 L 52.50,264.00 L 53.33,264.00 L 54.17,264.00 L 55.00,264.00 L 55.83,264.00 L 56.67,264.00 L 57.50,264.00 L 58.33,264.00 L 59.17,264.00 L 60.00,264.00 L 60.83,264.00 L 61.67,264.00 L 62.50,264.00 L 63.33,264.00 L 64.17,264.00 L 65.00,264.00 L 65.83,264.00 L 66.67,264.00 L 67.50,264.00 L 68.33,264.00 L 69.17,264.00 L 70.00,264.00 L 70.83,264.00 L 71.67,264.00 L 72.50,264.00 L 73.33,264.00 L 74.17,264.00 L 75.00,264.00 L 75.83,264.00 L 76.67,264.00 L 77.50,264.00 L 78.33,264.00 L 79.17,264.00 L 80.00,264.00 L 80.83,264.00 L 81.67,264.00 L 82.50,264.00 L 83.33,264.00 L 84.17,264.00 L 85.00,264.00 L 85.83,263.99 L 86.67,263.93 L 87.50,263.87 L 88.33,263.81 L 89.17,263.75 L 90.00,263.69 L 90.83,263.63 L 91.67,263.57 L 92.50,263.51 L 93.33,263.44 L 94.17,263.37 L 95.00,263.31 L 95.83,263.24 L 96.67,263.17 L 97.50,263.10 L 98.33,263.03 L 99.17,262.95 L 100.00,262.88 L 100.83,262.80 L 101.67,262.72 L 102.50,262.64 L 103.33,262.56 L 104.17,262.48 L 105.00,262.40 L 105.83,262.31 L 106.67,262.22 L 107.50,262.14 L 108.33,262.05 L 109.17,261.96 L 110.00,261.87 L 110.83,261.78 L 111.67,261.69 L 112.50,261.59 L 113.33,261.50 L 114.17,261.41 L 115.00,261.32 L 115.83,261.23 L 116.67,261.13 L 117.50,261.04 L 118.33,260.95 L 119.17,260.87 L 120.00,260.78 L 120.83,260.69 L 121.67,260.61 L 122.50,260.53 L 123.33,260.45 L 124.17,260.38 L 125.00,260.31 L 125.83,260.24 L 126.67,260.18 L 127.50,260.12 L 128.33,260.06 L 129.17,260.01 L 130.00,259.97 L 130.83,259.93 L 131.67,259.90 L 132.50,259.88 L 133.33,259.86 L 134.17,259.85 L 135.00,259.85 L 135.83,259.86 L 136.67,259.88 L 137.50,259.90 L 138.33,259.94 L 139.17,259.98 L 140.00,260.04 L 140.83,260.11 L 141.67,260.18 L 142.50,260.27 L 143.33,260.37 L 144.17,260.49 L 145.00,260.61 L 145.83,260.75 L 146.67,260.90 L 147.50,261.07 L 148.33,261.24 L 149.17,261.44 L 150.00,261.64 L 150.83,261.86 L 151.67,262.10 L 152.50,262.35 L 153.33,262.61 L 154.17,262.89 L 155.00,263.18 L 155.83,263.49 L 156.67,263.81 L 157.50,264.15 L 158.33,264.50 L 159.17,264.86 L 160.00,265.24 L 160.83,265.64 L 161.67,266.04 L 162.50,266.46 L 163.33,266.90 L 164.17,267.35 L 165.00,267.81 L 165.83,268.28 L 166.67,268.76 L 167.50,269.25 L 168.33,269.76 L 169.17,270.28 L 170.00,270.80 L 170.83,271.33 L 171.67,271.87 L 172.50,272.42 L 173.33,272.98 L 174.17,273.54 L 175.00,274.11 L 175.83,274.68 L 176.67,275.25 L 177.50,275.82 L 178.33,276.40 L 179.17,276.98 L 180.00,277.55 L 180.83,278.12 L 181.67,278.69 L 182.50,279.26 L 183.33,279.82 L 184.17,280.37 L 185.00,280.91 L 185.83,281.45 L 186.67,281.97 L 187.50,282.49 L 188.33,282.98 L 189.17,283.47 L 190.00,283.93 L 190.83,284.38 L 191.67,284.81 L 192.50,285.22 L 193.33,285.61 L 194.17,285.97 L 195.00,286.31 L 195.83,286.62 L 196.67,286.91 L 197.50,287.16 L 198.33,287.39 L 199.17,287.58 L 200.00,287.74 L 200.83,287.86 L 201.67,287.95 L 202.50,287.99 L 203.33,288.00 L 204.17,287.97 L 205.00,287.90 L 205.83,287.78 L 206.67,287.62 L 207.50,287.41 L 208.33,287.15 L 209.17,286.85 L 210.00,286.50 L 210.83,286.09 L 211.67,285.64 L 212.50,285.13 L 213.33,284.56 L 214.17,283.95 L 215.00,283.27 L 215.83,282.54 L 216.67,281.76 L 217.50,280.91 L 218.33,280.01 L 219.17,279.05 L 220.00,278.03 L 220.83,276.95 L 221.67,275.80 L 222.50,274.60 L 223.33,273.34 L 224.17,272.01 L 225.00,270.63 L 225.83,269.18 L 226.67,267.67 L 227.50,266.11 L 228.33,264.48 L 229.17,262.79 L 230.00,261.04 L 230.83,259.23 L 231.67,257.36 L 232.50,255.43 L 233.33,253.45 L 234.17,251.41 L 235.00,249.31 L 235.83,247.16 L 236.67,244.95 L 237.50,242.69 L 238.33,240.38 L 239.17,238.02 L 240.00,235.61 L 240.83,233.15 L 241.67,230.64 L 242.50,228.09 L 243.33,225.50 L 244.17,222.87 L 245.00,220.20 L 245.83,217.49 L 246.67,214.74 L 247.50,211.96 L 248.33,209.15 L 249.17,206.31 L 250.00,203.44 L 250.83,200.55 L 251.67,197.64 L 252.50,194.70 L 253.33,191.75 L 254.17,188.78 L 255.00,185.80 L 255.83,182.81 L 256.67,179.81 L 257.50,176.80 L 258.33,173.80 L 259.17,170.79 L 260.00,167.79 L 260.83,164.79 L 261.67,161.80 L 262.50,158.82 L 263.33,155.86 L 264.17,152.91 L 265.00,149.98 L 265.83,147.07 L 266.67,144.19 L 267.50,141.34 L 268.33,138.52 L 269.17,135.73 L 270.00,132.97 L 270.83,130.26 L 271.67,127.58 L 272.50,124.96 L 273.33,122.37 L 274.17,119.84 L 275.00,117.36 L 275.83,114.93 L 276.67,112.56 L 277.50,110.25 L 278.33,108.00 L 279.17,105.82 L 280.00,103.70 L 280.83,101.65 L 281.67,99.67 L 282.50,97.77 L 283.33,95.94 L 284.17,94.18 L 285.00,92.50 L 285.83,90.91 L 286.67,89.39 L 287.50,87.96 L 288.33,86.62 L 289.17,85.36 L 290.00,84.19 L 290.83,83.10 L 291.67,82.11 L 292.50,81.21 L 293.33,80.40 L 294.17,79.68 L 295.00,79.06 L 295.83,78.54 L 296.67,78.10 L 297.50,77.77 L 298.33,77.53 L 299.17,77.38 L 300.00,77.33 L 300.83,77.38 L 301.67,77.53 L 302.50,77.77 L 303.33,78.10 L 304.17,78.54 L 305.00,79.06 L 305.83,79.68 L 306.67,80.40 L 307.50,81.21 L 308.33,82.11 L 309.17,83.10 L 310.00,84.19 L 310.83,85.36 L 311.67,86.62 L 312.50,87.96 L 313.33,89.39 L 314.17,90.91 L 315.00,92.50 L 315.83,94.18 L 316.67,95.94 L 317.50,97.77 L 318.33,99.67 L 319.17,101.65 L 320.00,103.70 L 320.83,105.82 L 321.67,108.00 L 322.50,110.25 L 323.33,112.56 L 324.17,114.93 L 325.00,117.36 L 325.83,119.84 L 326.67,122.37 L 327.50,124.96 L 328.33,127.58 L 329.17,130.26 L 330.00,132.97 L 330.83,135.73 L 331.67,138.52 L 332.50,141.34 L 333.33,144.19 L 334.17,147.07 L 335.00,149.98 L 335.83,152.91 L 336.67,155.86 L 337.50,158.82 L 338.33,161.80 L 339.17,164.79 L 340.00,167.79 L 340.83,170.79 L 341.67,173.80 L 342.50,176.80 L 343.33,179.81 L 344.17,182.81 L 345.00,185.80 L 345.83,188.78 L 346.67,191.75 L 347.50,194.70 L 348.33,197.64 L 349.17,200.55 L 350.00,203.44 L 350.83,206.31 L 351.67,209.15 L 352.50,211.96 L 353.33,214.74 L 354.17,217.49 L 355.00,220.20 L 355.83,222.87 L 356.67,225.50 L 357.50,228.09 L 358.33,230.64 L 359.17,233.15 L 360.00,235.61 L 360.83,238.02 L 361.67,240.38 L 362.50,242.69 L 363.33,244.95 L 364.17,247.16 L 365.00,249.31 L 365.83,251.41 L 366.67,253.45 L 367.50,255.43 L 368.33,257.36 L 369.17,259.23 L 370.00,261.04 L 370.83,262.79 L 371.67,264.48 L 372.50,266.11 L 373.33,267.67 L 374.17,269.18 L 375.00,270.63 L 375.83,272.01 L 376.67,273.34 L 377.50,274.60 L 378.33,275.80 L 379.17,276.95 L 380.00,278.03 L 380.83,279.05 L 381.67,280.01 L 382.50,280.91 L 383.33,281.76 L 384.17,282.54 L 385.00,283.27 L 385.83,283.95 L 386.67,284.56 L 387.50,285.13 L 388.33,285.64 L 389.17,286.09 L 390.00,286.50 L 390.83,286.85 L 391.67,287.15 L 392.50,287.41 L 393.33,287.62 L 394.17,287.78 L 395.00,287.90 L 395.83,287.97 L 396.67,288.00 L 397.50,287.99 L 398.33,287.95 L 399.17,287.86 L 400.00,287.74 L 400.83,287.58 L 401.67,287.39 L 402.50,287.16 L 403.33,286.91 L 404.17,286.62 L 405.00,286.31 L 405.83,285.97 L 406.67,285.61 L 407.50,285.22 L 408.33,284.81 L 409.17,284.38 L 410.00,283.93 L 410.83,283.47 L 411.67,282.98 L 412.50,282.49 L 413.33,281.97 L 414.17,281.45 L 415.00,280.91 L 415.83,280.37 L 416.67,279.82 L 417.50,279.26 L 418.33,278.69 L 419.17,278.12 L 420.00,277.55 L 420.83,276.98 L 421.67,276.40 L 422.50,275.82 L 423.33,275.25 L 424.17,274.68 L 425.00,274.11 L 425.83,273.54 L 426.67,272.98 L 427.50,272.42 L 428.33,271.87 L 429.17,271.33 L 430.00,270.80 L 430.83,270.28 L 431.67,269.76 L 432.50,269.25 L 433.33,268.76 L 434.17,268.28 L 435.00,267.81 L 435.83,267.35 L 436.67,266.90 L 437.50,266.46 L 438.33,266.04 L 439.17,265.64 L 440.00,265.24 L 440.83,264.86 L 441.67,264.50 L 442.50,264.15 L 443.33,263.81 L 444.17,263.49 L 445.00,263.18 L 445.83,262.89 L 446.67,262.61 L 447.50,262.35 L 448.33,262.10 L 449.17,261.86 L 450.00,261.64 L 450.83,261.44 L 451.67,261.24 L 452.50,261.07 L 453.33,260.90 L 454.17,260.75 L 455.00,260.61 L 455.83,260.49 L 456.67,260.37 L 457.50,260.27 L 458.33,260.18 L 459.17,260.11 L 460.00,260.04 L 460.83,259.98 L 461.67,259.94 L 462.50,259.90 L 463.33,259.88 L 464.17,259.86 L 465.00,259.85 L 465.83,259.85 L 466.67,259.86 L 467.50,259.88 L 468.33,259.90 L 469.17,259.93 L 470.00,259.97 L 470.83,260.01 L 471.67,260.06 L 472.50,260.12 L 473.33,260.18 L 474.17,260.24 L 475.00,260.31 L 475.83,260.38 L 476.67,260.45 L 477.50,260.53 L 478.33,260.61 L 479.17,260.69 L 480.00,260.78 L 480.83,260.87 L 481.67,260.95 L 482.50,261.04 L 483.33,261.13 L 484.17,261.23 L 485.00,261.32 L 485.83,261.41 L 486.67,261.50 L 487.50,261.59 L 488.33,261.69 L 489.17,261.78 L 490.00,261.87 L 490.83,261.96 L 491.67,262.05 L 492.50,262.14 L 493.33,262.22 L 494.17,262.31 L 495.00,262.40 L 495.83,262.48 L 496.67,262.56 L 497.50,262.64 L 498.33,262.72 L 499.17,262.80 L 500.00,262.88 L 500.83,262.95 L 501.67,263.03 L 502.50,263.10 L 503.33,263.17 L 504.17,263.24 L 505.00,263.31 L 505.83,263.37 L 506.67,263.44 L 507.50,263.51 L 508.33,263.57 L 509.17,263.63 L 510.00,263.69 L 510.83,263.75 L 511.67,263.81 L 512.50,263.87 L 513.33,263.93 L 514.17,263.99 L 515.00,264.00 L 515.83,264.00 L 516.67,264.00 L 517.50,264.00 L 518.33,264.00 L 519.17,264.00 L 520.00,264.00 L 520.83,264.00 L 521.67,264.00 L 522.50,264.00 L 523.33,264.00 L 524.17,264.00 L 525.00,264.00 L 525.83,264.00 L 526.67,264.00 L 527.50,264.00 L 528.33,264.00 L 529.17,264.00 L 530.00,264.00 L 530.83,264.00 L 531.67,264.00 L 532.50,264.00 L 533.33,264.00 L 534.17,264.00 L 535.00,264.00 L 535.83,264.00 L 536.67,264.00 L 537.50,264.00 L 538.33,264.00 L 539.17,264.00 L 540.00,264.00 L 540.83,264.00 L 541.67,264.00 L 542.50,264.00 L 543.33,264.00 L 544.17,264.00 L 545.00,264.00 L 545.83,264.00 L 546.67,264.00 L 547.50,264.00 L 548.33,264.00 L 549.17,264.00 L 550.00,264.00 L 550.00,264.00 L 50.00,264.00 Z" fill="#004000" fill-opacity="0.75" />
  <path d="M 50.00,264.00 L 50.83,264.00 L 51.67,264.00 L 52.50,264.00 L 53.33,264.00 L 54.17,264.00 L 55.00,264.00 L 55.83,264.00 L 56.67,264.00 L 57.50,264.00 L 58.33,264.00 L 59.17,264.00 L 60.00,264.00 L 60.83,264.00 L 61.67,264.00 L 62.50,264.00 L 63.33,264.00 L 64.17,264.00 L 65.00,264.00 L 65.83,264.00 L 66.67,264.00 L 67.50,264.00 L 68.33,264.00 L 69.17,264.00 L 70.00,264.00 L 70.83,264.00 L 71.67,264.00 L 72.50,264.00 L 73.33,264.00 L 74.17,264.00 L 75.00,264.00 L 75.83,264.00 L 76.67,264.00 L 77.50,264.00 L 78.33,264.00 L 79.17,264.00 L 80.00,264.00 L 80.83,264.00 L 81.67,264.00 L 82.50,264.00 L 83.33,264.00 L 84.17,264.00 L 85.00,264.00 L 85.83,263.99 L 86.67,263.93 L 87.50,263.87 L 88.33,263.81 L 89.17,263.75 L 90.00,263.69 L 90.83,263.63 L 91.67,263.57 L 92.50,263.51 L 93.33,263.44 L 94.17,263.37 L 95.00,263.31 L 95.83,263.24 L 96.67,263.17 L 97.50,263.10 L 98.33,263.03 L 99.17,262.95 L 100.00,262.88 L 100.83,262.80 L 101.67,262.72 L 102.50,262.64 L 103.33,262.56 L 104.17,262.48 L 105.00,262.40 L 105.83,262.31 L 106.67,262.22 L 107.50,262.14 L 108.33,262.05 L 109.17,261.96 L 110.00,261.87 L 110.83,261.78 L 111.67,261.69 L 112.50,261.59 L 113.33,261.50 L 114.17,261.41 L 115.00,261.32 L 115.83,261.23 L 116.67,261.13 L 117.50,261.04 L 118.33,260.95 L 119.17,260.87 L 120.00,260.78 L 120.83,260.69 L 121.67,260.61 L 122.50,260.53 L 123.33,260.45 L 124.17,260.38 L 125.00,260.31 L 125.83,260.24 L 126.67,260.18 L 127.50,260.12 L 128.33,260.06 L 129.17,260.01 L 130.00,259.97 L 130.83,259.93 L 131.67,259.90 L 132.50,259.88 L 133.33,259.86 L 134.17,259.85 L 135.00,259.85 L 135.83,259.86 L 136.67,259.88 L 137.50,259.90 L 138.33,259.94 L 139.17,259.98 L 140.00,260.04 L 140.83,260.11 L 141.67,260.18 L 142.50,260.27 L 143.33,260.37 L 144.17,260.49 L 145.00,260.61 L 145.83,260.75 L 146.67,260.90 L 147.50,261.07 L 148.33,261.24 L 149.17,261.44 L 150.00,261.64 L 150.83,261.86 L 151.67,262.10 L 152.50,262.35 L 153.33,262.61 L 154.17,262.89 L 155.00,263.18 L 155.83,263.49 L 156.67,263.81 L 157.50,264.15 L 158.33,264.50 L 159.17,264.86 L 160.00,265.24 L 160.83,265.64 L 161.67,266.04 L 162.50,266.46 L 163.33,266.90 L 164.17,267.35 L 165.00,267.81 L 165.83,268.28 L 166.67,268.76 L 167.50,269.25 L 168.33,269.76 L 169.17,270.28 L 170.00,270.80 L 170.83,271.33 L 171.67,271.87 L 172.50,272.42 L 173.33,272.98 L 174.17,273.54 L 175.00,274.11 L 175.83,274.68 L 176.67,275.25 L 177.50,275.82 L 178.33,276.40 L 179.17,276.98 L 180.00,277.55 L 180.83,278.12 L 181.67,278.69 L 182.50,279.26 L 183.33,279.82 L 184.17,280.37 L 185.00,280.91 L 185.83,281.45 L 186.67,281.97 L 187.50,282.49 L 188.33,282.98 L 189.17,283.47 L 190.00,283.93 L 190.83,284.38 L 191.67,284.81 L 192.50,285.22 L 193.33,285.61 L 194.17,285.97 L 195.00,286.31 L 195.83,286.62 L 196.67,286.91 L 197.50,287.16 L 198.33,287.39 L 199.17,287.58 L 200.00,287.74 L 200.83,287.86 L 201.67,287.95 L 202.50,287.99 L 203.33,288.00 L 204.17,287.97 L 205.00,287.90 L 205.83,287.78 L 206.67,287.62 L 207.50,287.41 L 208.33,287.15 L 209.17,286.85 L 210.00,286.50 L 210.83,286.09 L 211.67,285.64 L 212.50,285.13 L 213.33,284.56 L 214.17,283.95 L 215.00,283.27 L 215.83,282.54 L 216.67,281.76 L 217.50,280.91 L 218.33,280.01 L 219.17,279.05 L 220.00,278.03 L 220.83,276.95 L 221.67,275.80 L 222.50,274.60 L 223.33,273.34 L 224.17,272.01 L 225.00,270.63 L 225.83,269.18 L 226.67,267.67 L 227.50,266.11 L 228.33,264.48 L 229.17,262.79 L 230.00,261.04 L 230.83,259.23 L 231.67,257.36 L 232.50,255.43 L 233.33,253.45 L 234.17,251.41 L 235.00,249.31 L 235.83,247.16 L 236.67,244.95 L 237.50,242.69 L 238.33,240.38 L 239.17,238.02 L 240.00,235.61 L 240.83,233.15 L 241.67,230.64 L 242.50,228.09 L 243.33,225.50 L 244.17,222.87 L 245.00,220.20 L 245.83,217.49 L 246.67,214.74 L 247.50,211.96 L 248.33,209.15 L 249.17,206.31 L 250.00,203.44 L 250.83,200.55 L 251.67,197.64 L 252.50,194.70 L 253.33,191.75 L 254.17,188.78 L 255.00,185.80 L 255.83,182.81 L 256.67,179.81 L 257.50,176.80 L 258.33,173.80 L 259.17,170.79 L 260.00,167.79 L 260.83,164.79 L 261.67,161.80 L 262.50,158.82 L 263.33,155.86 L 264.17,152.91 L 265.00,149.98 L 265.83,147.07 L 266.67,144.19 L 267.50,141.34 L 268.33,138.52 L 269.17,135.73 L 270.00,132.97 L 270.83,130.26 L 271.67,127.58 L 272.50,124.96 L 273.33,122.37 L 274.17,119.84 L 275.00,117.36 L 275.83,114.93 L 276.67,112.56 L 277.50,110.25 L 278.33,108.00 L 279.17,105.82 L 280.00,103.70 L 280.83,101.65 L 281.67,99.67 L 282.50,97.77 L 283.33,95.94 L 284.17,94.18 L 285.00,92.50 L 285.83,90.91 L 286.67,89.39 L 287.50,87.96 L 288.33,86.62 L 289.17,85.36 L 290.00,84.19 L 290.83,83.10 L 291.67,82.11 L 292.50,81.21 L 293.33,80.40 L 294.17,79.68 L 295.00,79.06 L 295.83,78.54 L 296.67,78.10 L 297.50,77.77 L 298.33,77.53 L 299.17,77.38 L 300.00,77.33 L 300.83,77.38 L 301.67,77.53 L 302.50,77.77 L 303.33,78.10 L 304.17,78.54 L 305.00,79.06 L 305.83,79.68 L 306.67,80.40 L 307.50,81.21 L 308.33,82.11 L 309.17,83.10 L 310.00,84.19 L 310.83,85.36 L 311.67,86.62 L 312.50,87.96 L 313.33,89.39 L 314.17,90.91 L 315.00,92.50 L 315.83,94.18 L 316.67,95.94 L 317.50,97.77 L 318.33,99.67 L 319.17,101.65 L 320.00,103.70 L 320.83,105.82 L 321.67,108.00 L 322.50,110.25 L 323.33,112.56 L 324.17,114.93 L 325.00,117.36 L 325.83,119.84 L 326.67,122.37 L 327.50,124.96 L 328.33,127.58 L 329.17,130.26 L 330.00,132.97 L 330.83,135.73 L 331.67,138.52 L 332.50,141.34 L 333.33,144.19 L 334.17,147.07 L 335.00,149.98 L 335.83,152.91 L 336.67,155.86 L 337.50,158.82 L 338.33,161.80 L 339.17,164.79 L 340.00,167.79 L 340.83,170.79 L 341.67,173.80 L 342.50,176.80 L 343.33,179.81 L 344.17,182.81 L 345.00,185.80 L 345.83,188.78 L 346.67,191.75 L 347.50,194.70 L 348.33,197.64 L 349.17,200.55 L 350.00,203.44 L 350.83,206.31 L 351.67,209.15 L 352.50,211.96 L 353.33,214.74 L 354.17,217.49 L 355.00,220.20 L 355.83,222.87 L 356.67,225.50 L 357.50,228.09 L 358.33,230.64 L 359.17,233.15 L 360.00,235.61 L 360.83,238.02 L 361.67,240.38 L 362.50,242.69 L 363.33,244.95 L 364.17,247.16 L 365.00,249.31 L 365.83,251.41 L 366.67,253.45 L 367.50,255.43 L 368.33,257.36 L 369.17,259.23 L 370.00,261.04 L 370.83,262.79 L 371.67,264.48 L 372.50,266.11 L 373.33,267.67 L 374.17,269.18 L 375.00,270.63 L 375.83,272.01 L 376.67,273.34 L 377.50,274.60 L 378.33,275.80 L 379.17,276.95 L 380.00,278.03 L 380.83,279.05 L 381.67,280.01 L 382.50,280.91 L 383.33,281.76 L 384.17,282.54 L 385.00,283.27 L 385.83,283.95 L 386.67,284.56 L 387.50,285.13 L 388.33,285.64 L 389.17,286.09 L 390.00,286.50 L 390.83,286.85 L 391.67,287.15 L 392.50,287.41 L 393.33,287.62 L 394.17,287.78 L 395.00,287.90 L 395.83,287.97 L 396.67,288.00 L 397.50,287.99 L 398.33,287.95 L 399.17,287.86 L 400.00,287.74 L 400.83,287.58 L 401.67,287.39 L 402.50,287.16 L 403.33,286.91 L 404.17,286.62 L 405.00,286.31 L 405.83,285.97 L 406.67,285.61 L 407.50,285.22 L 408.33,284.81 L 409.17,284.38 L 410.00,283.93 L 410.83,283.47 L 411.67,282.98 L 412.50,282.49 L 413.33,281.97 L 414.17,281.45 L 415.00,280.91 L 415.83,280.37 L 416.67,279.82 L 417.50,279.26 L 418.33,278.69 L 419.17,278.12 L 420.00,277.55 L 420.83,276.98 L 421.67,276.40 L 422.50,275.82 L 423.33,275.25 L 424.17,274.68 L 425.00,274.11 L 425.83,273.54 L 426.67,272.98 L 427.50,272.42 L 428.33,271.87 L 429.17,271.33 L 430.00,270.80 L 430.83,270.28 L 431.67,269.76 L 432.50,269.25 L 433.33,268.76 L 434.17,268.28 L 435.00,267.81 L 435.83,267.35 L 436.67,266.90 L 437.50,266.46 L 438.33,266.04 L 439.17,265.64 L 440.00,265.24 L 440.83,264.86 L 441.67,264.50 L 442.50,264.15 L 443.33,263.81 L 444.17,263.49 L 445.00,263.18 L 445.83,262.89 L 446.67,262.61 L 447.50,262.35 L 448.33,262.10 L 449.17,261.86 L 450.00,261.64 L 450.83,261.44 L 451.67,261.24 L 452.50,261.07 L 453.33,260.90 L 454.17,260.75 L 455.00,260.61 L 455.83,260.49 L 456.67,260.37 L 457.50,260.27 L 458.33,260.18 L 459.17,260.11 L 460.00,260.04 L 460.83,259.98 L 461.67,259.94 L 462.50,259.90 L 463.33,259.88 L 464.17,259.86 L 465.00,259.85 L 465.83,259.85 L 466.67,259.86 L 467.50,259.88 L 468.33,259.90 L 469.17,259.93 L 470.00,259.97 L 470.83,260.01 L 471.67,260.06 L 472.50,260.12 L 473.33,260.18 L 474.17,260.24 L 475.00,260.31 L 475.83,260.38 L 476.67,260.45 L 477.50,260.53 L 478.33,260.61 L 479.17,260.69 L 480.00,260.78 L 480.83,260.87 L 481.67,260.95 L 482.50,261.04 L 483.33,261.13 L 484.17,261.23 L 485.00,261.32 L 485.83,261.41 L 486.67,261.50 L 487.50,261.59 L 488.33,261.69 L 489.17,261.78 L 490.00,261.87 L 490.83,261.96 L 491.67,262.05 L 492.50,262.14 L 493.33,262.22 L 494.17,262.31 L 495.00,262.40 L 495.83,262.48 L 496.67,262.56 L 497.50,262.64 L 498.33,262.72 L 499.17,262.80 L 500.00,262.88 L 500.83,262.95 L 501.67,263.03 L 502.50,263.10 L 503.33,263.17 L 504.17,263.24 L 505.00,263.31 L 505.83,263.37 L 506.67,263.44 L 507.50,263.51 L 508.33,263.57 L 509.17,263.63 L 510.00,263.69 L 510.83,263.75 L 511.67,263.81 L 512.50,263.87 L 513.33,263.93 L 514.17,263.99 L 515.00,264.00 L 515.83,264.00 L 516.67,264.00 L 517.50,264.00 L 518.33,264.00 L 519.17,264.00 L 520.00,264.00 L 520.83,264.00 L 521.67,264.00 L 522.50,264.00 L 523.33,264.00 L 524.17,264.00 L 525.00,264.00 L 525.83,264.00 L 526.67,264.00 L 527.50,264.00 L 528.33,264.00 L 529.17,264.00 L 530.00,264.00 L 530.83,264.00 L 531.67,264.00 L 532.50,264.00 L 533.33,264.00 L 534.17,264.00 L 535.00,264.00 L 535.83,264.00 L 536.67,264.00 L 537.50,264.00 L 538.33,264.00 L 539.17,264.00 L 540.00,264.00 L 540.83,264.00 L 541.67,264.00 L 542.50,264.00 L 543.33,264.00 L 544.17,264.00 L 545.00,264.00 L 545.83,264.00 L 546.67,264.00 L 547.50,264.00 L 548.33,264.00 L 549.17,264.00 L 550.00,264.00 " fill="none" stroke="#008800" stroke-width="2.5" />
</svg>
